<?xml version="1.0" encoding="UTF-8" standalone="no"?>
<!-- Generator: Adobe Illustrator 16.0.0, SVG Export Plug-In . SVG Version: 6.00 Build 0)  -->

<svg
   xmlns:dc="http://purl.org/dc/elements/1.1/"
   xmlns:cc="http://creativecommons.org/ns#"
   xmlns:rdf="http://www.w3.org/1999/02/22-rdf-syntax-ns#"
   xmlns:svg="http://www.w3.org/2000/svg"
   xmlns="http://www.w3.org/2000/svg"
   xmlns:sodipodi="http://sodipodi.sourceforge.net/DTD/sodipodi-0.dtd"
   xmlns:inkscape="http://www.inkscape.org/namespaces/inkscape"
   version="1.1"
   id="Layer_1"
   x="0px"
   y="0px"
   width="700"
   height="700"
   viewBox="0 0 700 700"
   enable-background="new 0 0 138 138"
   xml:space="preserve"
   sodipodi:docname="atletico-mineiro-logo.svg"
   inkscape:version="0.92.4 (5da689c313, 2019-01-14)"><metadata
   id="metadata15"><rdf:RDF><cc:Work
       rdf:about=""><dc:format>image/svg+xml</dc:format><dc:type
         rdf:resource="http://purl.org/dc/dcmitype/StillImage" /><dc:title></dc:title></cc:Work></rdf:RDF></metadata><defs
   id="defs13" /><sodipodi:namedview
   pagecolor="#ffffff"
   bordercolor="#666666"
   borderopacity="1"
   objecttolerance="10"
   gridtolerance="10"
   guidetolerance="10"
   inkscape:pageopacity="0"
   inkscape:pageshadow="2"
   inkscape:window-width="1600"
   inkscape:window-height="837"
   id="namedview11"
   showgrid="false"
   inkscape:zoom="0.42753623"
   inkscape:cx="701.49906"
   inkscape:cy="197.87887"
   inkscape:window-x="-8"
   inkscape:window-y="-8"
   inkscape:window-maximized="1"
   inkscape:current-layer="g8" />
<g
   id="g8"
   transform="matrix(3.6976294,0,0,3.6976294,95.074336,93.210731)">
	
	<path
   d="M 68.921975,1.6794625 C 71.7415,5.9631624 75.42296,9.6334919 79.45686,12.777015 c 5.49189,4.250311 11.92362,7.354263 18.7585,8.679934 6.58013,1.307121 13.44097,0.936132 19.91723,-0.758057 1.82897,-0.425402 3.58747,-1.088238 5.38924,-1.602677 0.9349,4.39005 1.31702,8.875321 1.49386,13.351936 0.0296,0.591111 0.0235,1.184695 0.13356,1.768387 v 3.298102 c -0.21147,2.451009 -0.20405,4.919331 -0.44148,7.370339 -1.28239,16.014409 -5.97913,31.743156 -13.64872,45.854385 -1.19089,2.324872 -2.60065,4.528554 -3.92385,6.779227 -1.70037,2.580859 -3.36117,5.188919 -5.24333,7.643639 -1.48396,2.1134 -3.13734,4.09572 -4.76846,6.09784 -1.4011,1.77704 -2.97287,3.3995 -4.46177,5.09245 -1.2354,1.42338 -2.6093,2.71813 -3.922606,4.0673 -2.233361,2.34218 -4.691789,4.45064 -7.056233,6.65309 -1.459229,1.25518 -2.955555,2.46336 -4.428386,3.70001 -2.662473,2.27911 -5.593296,4.22558 -8.30276,6.44162 h -0.164473 l -0.02597,-0.12367 c -2.81087,-2.21851 -5.775081,-4.24413 -8.496913,-6.57641 -1.753547,-1.48891 -3.576345,-2.89496 -5.245801,-4.48033 -1.758493,-1.64101 -3.594894,-3.20288 -5.26064,-4.94158 -1.570526,-1.61876 -3.220195,-3.16208 -4.699209,-4.86493 -1.132756,-1.27249 -2.286536,-2.52644 -3.406926,-3.80759 -1.966248,-2.4337 -4.000511,-4.81545 -5.80105,-7.37652 -1.817853,-2.36939 -3.414348,-4.8946 -5.064017,-7.380233 -0.791446,-1.295991 -1.556923,-2.60806 -2.338475,-3.909 C 19.273598,77.943913 13.843538,59.952127 12.916062,41.683333 12.802292,40.373738 12.866597,39.05425 12.73675,37.747127 V 34.10895 l 0.05194,-0.537935 c 0.13974,-4.853788 0.509493,-9.723653 1.529717,-14.478511 2.7478,0.856988 5.486944,1.765913 8.325019,2.27046 5.601951,1.116681 11.428971,1.199535 17.038343,0.08162 7.392597,-1.443151 14.295487,-4.967558 20.073041,-9.761988 3.479888,-2.9036159 6.676586,-6.2017189 9.167167,-10.0031325 m -0.0136,1.6805867 c -1.330619,1.913072 -2.878885,3.6653831 -4.503821,5.3336012 -4.13654,4.2020826 -8.961886,7.7549316 -14.296724,10.2850846 -5.630398,2.683496 -11.84201,4.152617 -18.082065,4.213212 -5.784974,0.09151 -11.532848,-1.03259 -16.997533,-2.881358 -0.643049,3.316654 -0.981888,6.68648 -1.173565,10.057545 -1.067215,20.269666 3.615917,40.752033 13.06009,58.695592 5.689753,10.856409 13.091007,20.781623 21.65346,29.537003 6.238819,6.40081 13.099663,12.18332 20.345102,17.40933 12.68539,-9.11894 24.160119,-20.04213 33.260509,-32.77451 6.31425,-8.815962 11.46235,-18.47902 15.14505,-28.682486 4.86121,-13.443446 7.22195,-27.80695 6.75697,-42.101201 -0.15953,-4.070998 -0.47981,-8.153127 -1.28115,-12.154875 -6.48739,2.25191 -13.42613,3.350041 -20.28946,2.730488 C 95.90285,22.459858 89.47112,20.278436 83.792498,16.87522 78.018655,13.396569 72.896517,8.8012376 68.908373,3.3600482 m 0.01237,7.0809658 c 2.425039,2.919692 5.32371,5.420166 8.410348,7.621375 5.214885,3.686405 11.127232,6.393398 17.342549,7.874885 7.29862,1.762204 14.95832,1.803012 22.33361,0.471157 0.763,-0.119953 1.51117,-0.319051 2.27664,-0.421692 1.11298,7.491528 0.96581,15.124033 0.15953,22.63782 -1.52849,13.652439 -5.73057,26.982116 -12.19074,39.101128 -4.84142,9.113992 -10.94792,17.540413 -17.95345,25.111093 -6.185641,6.684 -13.060088,12.72125 -20.393327,18.11174 -8.08759,-5.98531 -15.648369,-12.70889 -22.30888,-20.25731 -8.093769,-9.13377 -14.858156,-19.476978 -19.74657,-30.670989 -2.969159,-6.777991 -5.253221,-13.861429 -6.78912,-21.10192 -1.940279,-9.204267 -2.7478,-18.676882 -2.066415,-28.067881 0.127373,-1.63483 0.296792,-3.26595 0.566378,-4.882231 6.930096,1.487672 14.139672,1.851241 21.14644,0.670257 6.416893,-1.061032 12.617376,-3.400744 18.146366,-6.82251 4.111808,-2.564779 7.949082,-5.647708 11.066636,-9.374922 m -10.057543,11.84448 c -5.452319,3.444025 -11.562527,5.856698 -17.913879,6.983272 -6.653091,1.200771 -13.523828,0.971994 -20.1324,-0.383358 -0.537935,3.709903 -0.641813,7.471743 -0.583691,11.217507 0.09398,4.660873 0.550302,9.311853 1.297229,13.910896 31.586104,0.0049 63.172207,-0.0049 94.759546,0.0061 0.7865,-4.704155 1.22551,-9.460249 1.31331,-14.228709 0.042,-3.643123 -0.0668,-7.297377 -0.5874,-10.905875 -4.29855,0.874301 -8.69354,1.292283 -13.07617,1.133994 -6.47873,-0.221357 -12.9117,-1.723868 -18.812913,-4.41231 -6.097843,-2.805876 -11.743076,-6.724769 -16.215981,-11.754159 -2.876411,3.316653 -6.356299,6.075583 -10.047651,8.432607 M 22.169794,57.482534 c 2.810868,14.121122 8.630467,27.604142 16.784832,39.458515 0.0012,-13.154075 0,-26.30444 0,-39.456042 -5.595768,0 -11.190301,0.0049 -16.784832,-0.0025 m 20.718564,0.0037 c 0.0098,14.936065 -0.01484,29.873366 0.01237,44.806953 0.85946,1.27374 1.909363,2.43865 2.878884,3.63942 3.670329,4.36655 7.623848,8.50557 11.865502,12.32182 -0.0061,-20.252355 -0.0136,-40.503472 0.0049,-60.755826 -4.919329,-0.03092 -9.841133,-0.0049 -14.761699,-0.01237 m 18.679356,0.0074 c 0.0098,21.407369 0.01119,42.811026 0,64.218396 2.370627,2.03055 4.841421,3.93868 7.329529,5.82207 2.546229,-1.85248 4.991055,-3.83974 7.418567,-5.84433 0.02474,-21.39995 0,-42.801133 0.01119,-64.201082 -4.916856,-0.0025 -9.838658,-0.01119 -14.759225,0.0049 m 18.681829,0.0074 c 0.02721,20.233805 -0.0049,40.470081 0.01608,60.706362 5.352151,-4.88471 10.304869,-10.20841 14.741909,-15.93898 0.007,-14.926168 0,-29.854813 0.002,-44.784694 -4.91933,0.01119 -9.842367,-0.01978 -14.76046,0.01731 m 18.69543,-0.01484 c 0.007,13.083587 -0.0173,26.169648 0.0112,39.254471 0.74692,-0.899033 1.32072,-1.929149 1.97243,-2.896196 7.08468,-11.080241 12.15734,-23.458946 14.7382,-36.360747 -5.5735,0.0025 -11.14702,0.0012 -16.72176,0.0025 M 36.821432,33.556176 c 2.544993,-0.947262 5.460975,-0.636868 7.852625,0.601004 0.968284,0.528042 1.932859,1.198297 2.495527,2.170292 -1.236633,0.709828 -2.429985,1.496327 -3.660435,2.218521 -0.609661,-1.078345 -1.872265,-1.540846 -3.039647,-1.673166 -1.140176,-0.152106 -2.39907,0.09893 -3.225141,0.943553 -1.089475,1.093184 -1.422128,2.711938 -1.411,4.204554 0.02226,1.472832 0.399434,3.065616 1.522297,4.098205 0.921292,0.85204 2.280353,1.01775 3.471231,0.777843 1.162436,-0.211465 2.327345,-0.905217 2.742854,-2.065178 1.260131,0.755582 2.507894,1.530952 3.759368,2.300139 -0.925002,1.671929 -2.627848,2.782426 -4.433333,3.293155 -2.389177,0.681386 -5.081328,0.541646 -7.265224,-0.707354 -1.868554,-1.052375 -3.243691,-2.886304 -3.844695,-4.934169 -0.73827,-2.511603 -0.497127,-5.337312 0.807522,-7.623848 0.931185,-1.643486 2.449771,-2.951846 4.228051,-3.603551 M 58.540434,50.46838 c 2.151742,-5.704592 4.244128,-11.43268 6.428022,-17.123669 1.500037,0.03587 3.001311,0.0025 4.501348,0.01608 2.13072,5.703355 4.261441,11.403 6.39587,17.10512 -1.547028,0.01978 -3.096531,0 -4.64356,0.0098 -0.358624,-1.020222 -0.704881,-2.044155 -1.057321,-3.065616 -1.984798,-0.0098 -3.973306,0 -5.960575,-0.0061 -0.370991,1.018986 -0.722195,2.046628 -1.085766,3.068089 -1.527243,-0.0012 -3.052012,0.0061 -4.578018,-0.0037 M 65.22444,44.0787 c 1.293519,0.04328 2.587038,0.0074 3.883031,0.01855 -0.638103,-1.981087 -1.287336,-3.958464 -1.91802,-5.939551 -0.725904,1.946461 -1.286099,3.954754 -1.965011,5.921003 m 21.665826,-10.71914 c 2.187606,-0.0012 4.373974,0 6.562814,-0.0012 1.01528,3.7841 1.96378,7.58675 3.00997,11.362192 0.98807,-3.786572 1.94522,-7.585511 2.95061,-11.368375 2.17771,0.01119 4.3579,0.01484 6.53561,-0.0037 0.0445,5.703355 -0.002,11.407948 0.0247,17.110067 -1.40358,0.02225 -2.8084,0.02844 -4.20827,-0.0025 0.007,-3.928787 -0.0284,-7.855099 -0.0322,-11.785122 0.002,-0.335127 -0.007,-0.670255 -0.0445,-1.001673 -1.20325,4.255257 -2.37805,8.517934 -3.53801,12.783084 -1.14142,0.04452 -2.2853,0.01607 -3.42672,0.01731 -1.04742,-3.751948 -2.10104,-7.501421 -3.15218,-11.252132 -0.15952,-0.515676 -0.24856,-1.054848 -0.48105,-1.543319 -0.0161,4.266387 -0.001,8.531537 -0.006,12.796688 -1.39864,0.0012 -2.797269,0.0012 -4.193429,0 V 33.359551"
   id="path4"
   inkscape:connector-curvature="0"
   style="fill:#ffffff;stroke-width:1.2366339" />
	<path
   d="m 68.933105,3.2747195 c 3.991855,5.4411894 9.117702,10.0377575 14.895255,13.5151725 5.68357,3.403217 12.11778,5.585876 18.72388,6.15349 6.86702,0.619555 13.81319,-0.478577 20.30429,-2.730488 0.80134,4.001748 1.12162,8.083877 1.28116,12.156113 0.46744,14.296724 -1.89701,28.661464 -6.75945,42.106148 -3.68764,10.205939 -8.83699,19.868997 -15.15866,28.683725 -9.10286,12.73609 -20.588718,23.66051 -33.281528,32.77945 C 61.687666,130.71109 54.823113,124.93105 48.580585,118.529 40.011948,109.76992 32.605748,99.845936 26.912284,88.987054 17.461928,71.041022 12.773849,50.557418 13.843538,30.286516 14.035215,26.914215 14.37529,23.544387 15.01834,20.226498 20.486734,22.075265 26.238319,23.199366 32.027003,23.109091 38.272004,23.0485 44.487326,21.579375 50.12143,18.89588 55.459979,16.365727 60.287797,12.811641 64.426811,8.6095588 66.052985,6.9401025 67.602487,5.1877926 68.933105,3.2747195 m 0.01237,7.0809655 c -3.118792,3.728453 -6.959777,6.81138 -11.076531,9.376159 -5.533937,3.423003 -11.736893,5.762715 -18.158733,6.823747 -7.010478,1.180985 -14.226236,0.817415 -21.160043,-0.670255 -0.269586,1.61628 -0.437768,3.2474 -0.566377,4.883467 -0.681386,9.392235 0.126135,18.86485 2.067651,28.070352 1.538373,7.241728 3.823673,14.325168 6.794067,21.104396 4.892124,11.195245 11.660221,21.539689 19.758937,30.675939 6.665456,7.54842 14.231183,14.27323 22.323715,20.25854 7.340659,-5.39173 14.218816,-11.42774 20.408169,-18.11298 7.01048,-7.57315 13.11945,-15.999569 17.96458,-25.114797 6.46512,-12.120249 10.6672,-25.451164 12.19816,-39.106075 0.80628,-7.513787 0.95468,-15.147529 -0.15829,-22.640294 -0.76796,0.102642 -1.51735,0.301739 -2.28159,0.421692 -7.37776,1.331855 -15.04118,1.292284 -22.34474,-0.471157 -6.219033,-1.481487 -12.136327,-4.188479 -17.356158,-7.876122 -3.084165,-2.202445 -5.985309,-4.702919 -8.41282,-7.622612 m -10.06249,11.845717 c 3.693825,-2.35826 7.174949,-5.117192 10.053833,-8.433843 4.476614,5.02939 10.125559,8.950757 16.228348,11.755443 5.902457,2.688442 12.340367,4.190951 18.824037,4.412309 4.38758,0.159526 8.78505,-0.259694 13.08359,-1.133993 0.52433,3.608497 0.63192,7.263987 0.58988,10.907111 -0.0878,4.769697 -0.52805,9.527027 -1.31455,14.229946 -31.607123,-0.01119 -63.214249,-0.0012 -94.821376,-0.0049 -0.748163,-4.600278 -1.204481,-9.251259 -1.298466,-13.913367 -0.05688,-3.745766 0.04575,-7.507606 0.583691,-11.218744 6.613519,1.355351 13.489204,1.584128 20.147241,0.384593 6.353825,-1.126573 12.467742,-3.540483 17.923772,-6.984509 m -22.05784,11.27311 c -1.779516,0.651705 -3.298102,1.960065 -4.231761,3.606024 -1.305886,2.286536 -1.545792,5.113481 -0.807522,7.626322 0.601004,2.047864 1.977378,3.880557 3.847167,4.934168 2.183896,1.249001 4.878521,1.388741 7.268936,0.707356 1.807958,-0.510731 3.51204,-1.621228 4.438279,-3.293157 -1.252711,-0.770423 -2.502948,-1.545793 -3.763078,-2.301376 -0.414271,1.159963 -1.580418,1.853715 -2.74409,2.06518 -1.190879,0.238669 -2.551176,0.07543 -3.473704,-0.777844 -1.124102,-1.031352 -1.501274,-2.625374 -1.523534,-4.098205 -0.01119,-1.492617 0.321525,-3.112607 1.412236,-4.205792 0.826072,-0.845856 2.087439,-1.095657 3.227615,-0.943551 1.168618,0.131083 2.431222,0.594821 3.040882,1.673165 1.231688,-0.722194 2.425039,-1.508693 3.664146,-2.218521 -0.563905,-0.971994 -1.528479,-1.642249 -2.498,-2.170293 -2.392886,-1.240343 -5.311343,-1.551975 -7.857572,-0.603476 m 21.732605,16.912205 c 1.527243,0.01119 3.053249,0.0025 4.580492,0.0037 0.36357,-1.021459 0.714773,-2.050339 1.087001,-3.069325 1.987271,0.0074 3.977014,-0.0025 5.964285,0.0061 0.353678,1.022697 0.699935,2.04663 1.059795,3.066852 1.547029,-0.0086 3.095295,0.0098 4.644797,-0.01119 -2.13443,-5.702118 -4.266387,-11.404237 -6.39958,-17.106357 -1.501273,-0.0136 -3.003784,0.01978 -4.505057,-0.01607 -2.185133,5.693462 -4.278754,11.421551 -6.431733,17.126144 M 86.924891,33.277823 V 50.3916 c 1.398634,0.0012 2.798499,0.0012 4.198369,0 0.005,-4.266387 -0.01,-8.531537 0.006,-12.797924 0.23249,0.488471 0.32153,1.027642 0.48105,1.542082 1.05238,3.750711 2.10846,7.501421 3.15466,11.253369 1.14265,-0.0012 2.28777,0.02721 3.42794,-0.01731 1.15997,-4.266387 2.33848,-8.529064 3.54049,-12.784321 0.0383,0.331418 0.047,0.666546 0.0445,1.001673 0.004,3.930023 0.0396,7.857572 0.0322,11.786358 1.40234,0.03215 2.80716,0.02597 4.21198,0.0025 -0.0272,-5.703356 0.0222,-11.407949 -0.0235,-17.111304 -2.18142,0.01855 -4.36037,0.01484 -6.54179,0.0025 -1.00662,3.782863 -1.96254,7.581802 -2.95185,11.369612 -1.04866,-3.775443 -1.99593,-7.578093 -3.01368,-11.36343 -2.18636,0.0025 -4.375205,0 -6.566522,0.0025 M 65.247903,43.995687 c 0.680148,-1.965011 1.239107,-3.974541 1.965011,-5.921003 0.63192,1.982325 1.28239,3.959702 1.919256,5.940789 -1.295992,-0.01119 -2.590748,0.0235 -3.884267,-0.01978 M 22.163578,57.402039 c 5.598242,0.0086 11.197719,0.0025 16.797198,0.0037 0,13.152838 0.0012,26.305678 0,39.459752 C 30.800261,85.008803 24.975716,71.525784 22.163611,57.402188 m 20.733404,0.0049 c 4.923039,0.0074 9.847316,-0.01978 14.771592,0.0136 -0.01978,20.253591 -0.01119,40.509655 -0.0049,60.763232 -4.246602,-3.81625 -8.201356,-7.95526 -11.875395,-12.32181 -0.969521,-1.20324 -2.019424,-2.36692 -2.880121,-3.64189 -0.02597,-14.937295 -0.0025,-29.875834 -0.01119,-44.813134 m 18.691722,0.0074 c 4.923039,-0.01731 9.846079,-0.0074 14.767882,-0.0049 -0.0098,21.402424 0.0136,42.806084 -0.0098,64.209734 -2.429987,2.00459 -4.874812,3.9931 -7.423514,5.84434 -2.490581,-1.88462 -4.962612,-3.79275 -7.334476,-5.82454 0.01119,-21.40861 0.0086,-42.81598 0,-64.224587 m 18.692959,0.0074 c 4.921802,-0.03587 9.847316,-0.0061 14.770356,-0.01608 -0.002,14.931119 0.005,29.859763 -0.002,44.790877 -4.44199,5.73056 -9.398418,11.05303 -14.751806,15.93774 -0.02102,-20.239985 0.01237,-40.476263 -0.01608,-60.71254 M 98.99005,57.40709 c 5.57722,-0.0012 11.15443,0 16.73165,-0.0012 -2.57962,12.903037 -7.65847,25.282979 -14.74686,36.361983 -0.6517,0.969521 -1.22674,1.999637 -1.97366,2.899906 -0.0272,-13.087296 -0.004,-26.175829 -0.0112,-39.260653"
   id="path6"
   inkscape:connector-curvature="0"
   style="fill:#1f1a17;stroke-width:1.2366339" />
</g>
</svg>